<?xml version="1.0" standalone="no"?>
<!DOCTYPE svg PUBLIC "-//W3C//DTD SVG 20010904//EN"
 "http://www.w3.org/TR/2001/REC-SVG-20010904/DTD/svg10.dtd">
<svg version="1.0" xmlns="http://www.w3.org/2000/svg"
 width="50.000000pt" height="41.000000pt" viewBox="0 0 50.000000 41.000000"
 preserveAspectRatio="xMidYMid meet">

<g transform="translate(0.000000,41.000000) scale(0.100000,-0.100000)"
fill="#000000" stroke="none">
<path d="M174 355 c3 -8 9 -22 12 -30 4 -10 0 -15 -10 -15 -9 0 -25 -9 -36
-20 -35 -35 -22 -132 19 -145 12 -3 21 -14 21 -23 0 -22 43 -68 71 -77 35 -11
86 4 103 30 25 38 21 101 -9 131 -14 14 -28 36 -31 51 -4 14 -19 33 -34 41
-24 14 -26 19 -17 39 14 32 4 38 -33 20 -27 -14 -32 -14 -37 -1 -3 7 -10 14
-15 14 -6 0 -7 -7 -4 -15z m76 -25 c-12 -23 -30 -27 -30 -7 0 17 10 27 27 27
11 0 11 -5 3 -20z m16 -61 c18 -33 17 -39 -5 -39 -22 0 -71 -41 -71 -59 0 -17
-21 -13 -36 7 -18 23 -17 87 1 105 24 24 95 15 111 -14z m52 -111 c19 -19 14
-45 -10 -62 -28 -20 -33 -20 -52 0 -23 22 -20 37 12 56 33 21 35 21 50 6z"/>
</g>
</svg>
